%TF.GenerationSoftware,KiCad,Pcbnew,8.0.7*%
%TF.CreationDate,2024-12-11T01:55:21-05:00*%
%TF.ProjectId,Clockshift,436c6f63-6b73-4686-9966-742e6b696361,rev?*%
%TF.SameCoordinates,Original*%
%TF.FileFunction,Copper,L3,Inr*%
%TF.FilePolarity,Positive*%
%FSLAX46Y46*%
G04 Gerber Fmt 4.6, Leading zero omitted, Abs format (unit mm)*
G04 Created by KiCad (PCBNEW 8.0.7) date 2024-12-11 01:55:21*
%MOMM*%
%LPD*%
G01*
G04 APERTURE LIST*
%TA.AperFunction,ComponentPad*%
%ADD10R,1.500000X1.500000*%
%TD*%
%TA.AperFunction,ComponentPad*%
%ADD11C,1.500000*%
%TD*%
%TA.AperFunction,ViaPad*%
%ADD12C,0.600000*%
%TD*%
G04 APERTURE END LIST*
D10*
%TO.N,unconnected-(J1-Pin_1-Pad1)*%
%TO.C,J1*%
X101390000Y-101380000D03*
D11*
%TO.N,GND*%
X101390000Y-116620000D03*
%TO.N,/OUT*%
X109010000Y-116620000D03*
%TO.N,+5V*%
X109010000Y-101380000D03*
%TD*%
D12*
%TO.N,GND*%
X102000000Y-109000000D03*
X101000000Y-111000000D03*
X101000000Y-110000000D03*
X102000000Y-110000000D03*
X102000000Y-111000000D03*
X101000000Y-109000000D03*
%TO.N,+5V*%
X101000000Y-103000000D03*
X101000000Y-105000000D03*
X106500000Y-114500000D03*
X102000000Y-105000000D03*
X102000000Y-103000000D03*
X101000000Y-104000000D03*
X102000000Y-104000000D03*
%TD*%
%TA.AperFunction,Conductor*%
%TO.N,+5V*%
G36*
X110142539Y-100220185D02*
G01*
X110188294Y-100272989D01*
X110199500Y-100324500D01*
X110199500Y-115745322D01*
X110179815Y-115812361D01*
X110127011Y-115858116D01*
X110057853Y-115868060D01*
X109994297Y-115839035D01*
X109973928Y-115816450D01*
X109971598Y-115813123D01*
X109903797Y-115745322D01*
X109816877Y-115658402D01*
X109637639Y-115532898D01*
X109637640Y-115532898D01*
X109637638Y-115532897D01*
X109538484Y-115486661D01*
X109439330Y-115440425D01*
X109439326Y-115440424D01*
X109439322Y-115440422D01*
X109227977Y-115383793D01*
X109010002Y-115364723D01*
X109009998Y-115364723D01*
X108864682Y-115377436D01*
X108792023Y-115383793D01*
X108792020Y-115383793D01*
X108580677Y-115440422D01*
X108580668Y-115440426D01*
X108382361Y-115532898D01*
X108382357Y-115532900D01*
X108203121Y-115658402D01*
X108048402Y-115813121D01*
X107922900Y-115992357D01*
X107922898Y-115992361D01*
X107830426Y-116190668D01*
X107830422Y-116190677D01*
X107773793Y-116402020D01*
X107773793Y-116402024D01*
X107754723Y-116619997D01*
X107754723Y-116620002D01*
X107773793Y-116837975D01*
X107773793Y-116837979D01*
X107830422Y-117049322D01*
X107830424Y-117049326D01*
X107830425Y-117049330D01*
X107876661Y-117148484D01*
X107922897Y-117247638D01*
X107922898Y-117247639D01*
X108048402Y-117426877D01*
X108048406Y-117426881D01*
X108206951Y-117585426D01*
X108205837Y-117586539D01*
X108240529Y-117638679D01*
X108241639Y-117708540D01*
X108204803Y-117767911D01*
X108141717Y-117797942D01*
X108122122Y-117799500D01*
X102277878Y-117799500D01*
X102210839Y-117779815D01*
X102165084Y-117727011D01*
X102155140Y-117657853D01*
X102184165Y-117594297D01*
X102193113Y-117585490D01*
X102193049Y-117585426D01*
X102196877Y-117581598D01*
X102351598Y-117426877D01*
X102477102Y-117247639D01*
X102569575Y-117049330D01*
X102626207Y-116837977D01*
X102645277Y-116620000D01*
X102626207Y-116402023D01*
X102569575Y-116190670D01*
X102477102Y-115992362D01*
X102477100Y-115992359D01*
X102477099Y-115992357D01*
X102351599Y-115813124D01*
X102283797Y-115745322D01*
X102196877Y-115658402D01*
X102017639Y-115532898D01*
X102017640Y-115532898D01*
X102017638Y-115532897D01*
X101918484Y-115486661D01*
X101819330Y-115440425D01*
X101819326Y-115440424D01*
X101819322Y-115440422D01*
X101607977Y-115383793D01*
X101390002Y-115364723D01*
X101389998Y-115364723D01*
X101244682Y-115377436D01*
X101172023Y-115383793D01*
X101172020Y-115383793D01*
X100960677Y-115440422D01*
X100960668Y-115440426D01*
X100762361Y-115532898D01*
X100762357Y-115532900D01*
X100583121Y-115658402D01*
X100428403Y-115813120D01*
X100426072Y-115816450D01*
X100371493Y-115860072D01*
X100301994Y-115867263D01*
X100239641Y-115835737D01*
X100204230Y-115775506D01*
X100200500Y-115745322D01*
X100200500Y-111631940D01*
X100220185Y-111564901D01*
X100272989Y-111519146D01*
X100342147Y-111509202D01*
X100405703Y-111538227D01*
X100412181Y-111544259D01*
X100497738Y-111629816D01*
X100650478Y-111725789D01*
X100820745Y-111785368D01*
X100820750Y-111785369D01*
X100999996Y-111805565D01*
X101000000Y-111805565D01*
X101000004Y-111805565D01*
X101179249Y-111785369D01*
X101179252Y-111785368D01*
X101179255Y-111785368D01*
X101349522Y-111725789D01*
X101434027Y-111672691D01*
X101501264Y-111653690D01*
X101565973Y-111672691D01*
X101650475Y-111725788D01*
X101820745Y-111785368D01*
X101820750Y-111785369D01*
X101999996Y-111805565D01*
X102000000Y-111805565D01*
X102000004Y-111805565D01*
X102179249Y-111785369D01*
X102179252Y-111785368D01*
X102179255Y-111785368D01*
X102349522Y-111725789D01*
X102502262Y-111629816D01*
X102629816Y-111502262D01*
X102725789Y-111349522D01*
X102785368Y-111179255D01*
X102805565Y-111000000D01*
X102785368Y-110820745D01*
X102725789Y-110650478D01*
X102725788Y-110650475D01*
X102672691Y-110565973D01*
X102653690Y-110498736D01*
X102672691Y-110434027D01*
X102725788Y-110349524D01*
X102785368Y-110179254D01*
X102785369Y-110179249D01*
X102805565Y-110000003D01*
X102805565Y-109999996D01*
X102785369Y-109820750D01*
X102785368Y-109820745D01*
X102725788Y-109650475D01*
X102672691Y-109565973D01*
X102653690Y-109498736D01*
X102672691Y-109434027D01*
X102725788Y-109349524D01*
X102785368Y-109179254D01*
X102785369Y-109179249D01*
X102805565Y-109000003D01*
X102805565Y-108999996D01*
X102785369Y-108820750D01*
X102785368Y-108820745D01*
X102725788Y-108650476D01*
X102629815Y-108497737D01*
X102502262Y-108370184D01*
X102349523Y-108274211D01*
X102179254Y-108214631D01*
X102179249Y-108214630D01*
X102000004Y-108194435D01*
X101999996Y-108194435D01*
X101820750Y-108214630D01*
X101820737Y-108214633D01*
X101650479Y-108274209D01*
X101565971Y-108327309D01*
X101498734Y-108346309D01*
X101434029Y-108327309D01*
X101349520Y-108274209D01*
X101179262Y-108214633D01*
X101179249Y-108214630D01*
X101000004Y-108194435D01*
X100999996Y-108194435D01*
X100820750Y-108214630D01*
X100820745Y-108214631D01*
X100650476Y-108274211D01*
X100497737Y-108370184D01*
X100412181Y-108455741D01*
X100350858Y-108489226D01*
X100281166Y-108484242D01*
X100225233Y-108442370D01*
X100200816Y-108376906D01*
X100200500Y-108368060D01*
X100200500Y-102673917D01*
X100220185Y-102606878D01*
X100272989Y-102561123D01*
X100342147Y-102551179D01*
X100389258Y-102570695D01*
X100389886Y-102569546D01*
X100397671Y-102573797D01*
X100532517Y-102624091D01*
X100532516Y-102624091D01*
X100539444Y-102624835D01*
X100592127Y-102630500D01*
X102187872Y-102630499D01*
X102247483Y-102624091D01*
X102382331Y-102573796D01*
X102497546Y-102487546D01*
X102583796Y-102372331D01*
X102634091Y-102237483D01*
X102640500Y-102177873D01*
X102640499Y-100582128D01*
X102634091Y-100522517D01*
X102583796Y-100387669D01*
X102581754Y-100383929D01*
X102580847Y-100379762D01*
X102580697Y-100379359D01*
X102580755Y-100379337D01*
X102566901Y-100315657D01*
X102591316Y-100250192D01*
X102647249Y-100208319D01*
X102690585Y-100200500D01*
X110075500Y-100200500D01*
X110142539Y-100220185D01*
G37*
%TD.AperFunction*%
%TD*%
M02*
