%TF.GenerationSoftware,KiCad,Pcbnew,8.0.7*%
%TF.CreationDate,2024-12-11T01:57:10-05:00*%
%TF.ProjectId,Clockshift,436c6f63-6b73-4686-9966-742e6b696361,rev?*%
%TF.SameCoordinates,Original*%
%TF.FileFunction,Drillmap*%
%TF.FilePolarity,Positive*%
%FSLAX45Y45*%
G04 Gerber Fmt 4.5, Leading zero omitted, Abs format (unit mm)*
G04 Created by KiCad (PCBNEW 8.0.7) date 2024-12-11 01:57:10*
%MOMM*%
%LPD*%
G01*
G04 APERTURE LIST*
%ADD10C,0.050000*%
%ADD11C,0.200000*%
G04 APERTURE END LIST*
D10*
X10000000Y-10000000D02*
X11040000Y-10000000D01*
X11040000Y-11800000D01*
X10000000Y-11800000D01*
X10000000Y-10000000D01*
D11*
X10258277Y-12113984D02*
X10258277Y-11913984D01*
X10258277Y-11913984D02*
X10305896Y-11913984D01*
X10305896Y-11913984D02*
X10334467Y-11923508D01*
X10334467Y-11923508D02*
X10353515Y-11942555D01*
X10353515Y-11942555D02*
X10363039Y-11961603D01*
X10363039Y-11961603D02*
X10372563Y-11999698D01*
X10372563Y-11999698D02*
X10372563Y-12028269D01*
X10372563Y-12028269D02*
X10363039Y-12066365D01*
X10363039Y-12066365D02*
X10353515Y-12085412D01*
X10353515Y-12085412D02*
X10334467Y-12104460D01*
X10334467Y-12104460D02*
X10305896Y-12113984D01*
X10305896Y-12113984D02*
X10258277Y-12113984D01*
X10458277Y-12113984D02*
X10458277Y-11980650D01*
X10458277Y-12018746D02*
X10467801Y-11999698D01*
X10467801Y-11999698D02*
X10477324Y-11990174D01*
X10477324Y-11990174D02*
X10496372Y-11980650D01*
X10496372Y-11980650D02*
X10515420Y-11980650D01*
X10582086Y-12113984D02*
X10582086Y-11980650D01*
X10582086Y-11913984D02*
X10572563Y-11923508D01*
X10572563Y-11923508D02*
X10582086Y-11933031D01*
X10582086Y-11933031D02*
X10591610Y-11923508D01*
X10591610Y-11923508D02*
X10582086Y-11913984D01*
X10582086Y-11913984D02*
X10582086Y-11933031D01*
X10705896Y-12113984D02*
X10686848Y-12104460D01*
X10686848Y-12104460D02*
X10677324Y-12085412D01*
X10677324Y-12085412D02*
X10677324Y-11913984D01*
X10810658Y-12113984D02*
X10791610Y-12104460D01*
X10791610Y-12104460D02*
X10782086Y-12085412D01*
X10782086Y-12085412D02*
X10782086Y-11913984D01*
X11039229Y-12113984D02*
X11039229Y-11913984D01*
X11039229Y-11913984D02*
X11105896Y-12056841D01*
X11105896Y-12056841D02*
X11172563Y-11913984D01*
X11172563Y-11913984D02*
X11172563Y-12113984D01*
X11353515Y-12113984D02*
X11353515Y-12009222D01*
X11353515Y-12009222D02*
X11343991Y-11990174D01*
X11343991Y-11990174D02*
X11324943Y-11980650D01*
X11324943Y-11980650D02*
X11286848Y-11980650D01*
X11286848Y-11980650D02*
X11267801Y-11990174D01*
X11353515Y-12104460D02*
X11334467Y-12113984D01*
X11334467Y-12113984D02*
X11286848Y-12113984D01*
X11286848Y-12113984D02*
X11267801Y-12104460D01*
X11267801Y-12104460D02*
X11258277Y-12085412D01*
X11258277Y-12085412D02*
X11258277Y-12066365D01*
X11258277Y-12066365D02*
X11267801Y-12047317D01*
X11267801Y-12047317D02*
X11286848Y-12037793D01*
X11286848Y-12037793D02*
X11334467Y-12037793D01*
X11334467Y-12037793D02*
X11353515Y-12028269D01*
X11448753Y-11980650D02*
X11448753Y-12180650D01*
X11448753Y-11990174D02*
X11467801Y-11980650D01*
X11467801Y-11980650D02*
X11505896Y-11980650D01*
X11505896Y-11980650D02*
X11524943Y-11990174D01*
X11524943Y-11990174D02*
X11534467Y-11999698D01*
X11534467Y-11999698D02*
X11543991Y-12018746D01*
X11543991Y-12018746D02*
X11543991Y-12075888D01*
X11543991Y-12075888D02*
X11534467Y-12094936D01*
X11534467Y-12094936D02*
X11524943Y-12104460D01*
X11524943Y-12104460D02*
X11505896Y-12113984D01*
X11505896Y-12113984D02*
X11467801Y-12113984D01*
X11467801Y-12113984D02*
X11448753Y-12104460D01*
X11629705Y-12094936D02*
X11639229Y-12104460D01*
X11639229Y-12104460D02*
X11629705Y-12113984D01*
X11629705Y-12113984D02*
X11620182Y-12104460D01*
X11620182Y-12104460D02*
X11629705Y-12094936D01*
X11629705Y-12094936D02*
X11629705Y-12113984D01*
X11629705Y-11990174D02*
X11639229Y-11999698D01*
X11639229Y-11999698D02*
X11629705Y-12009222D01*
X11629705Y-12009222D02*
X11620182Y-11999698D01*
X11620182Y-11999698D02*
X11629705Y-11990174D01*
X11629705Y-11990174D02*
X11629705Y-12009222D01*
M02*
