%TF.GenerationSoftware,KiCad,Pcbnew,8.0.7*%
%TF.CreationDate,2024-12-11T01:57:10-05:00*%
%TF.ProjectId,Clockshift,436c6f63-6b73-4686-9966-742e6b696361,rev?*%
%TF.SameCoordinates,Original*%
%TF.FileFunction,Drillmap*%
%TF.FilePolarity,Positive*%
%FSLAX45Y45*%
G04 Gerber Fmt 4.5, Leading zero omitted, Abs format (unit mm)*
G04 Created by KiCad (PCBNEW 8.0.7) date 2024-12-11 01:57:10*
%MOMM*%
%LPD*%
G01*
G04 APERTURE LIST*
%ADD10C,0.050000*%
%ADD11C,0.200000*%
%ADD12C,0.100000*%
G04 APERTURE END LIST*
D10*
X10000000Y-10000000D02*
X11040000Y-10000000D01*
X11040000Y-11800000D01*
X10000000Y-11800000D01*
X10000000Y-10000000D01*
D11*
D12*
X10085000Y-10285000D02*
X10115000Y-10315000D01*
X10115000Y-10285000D02*
X10085000Y-10315000D01*
X10085000Y-10385000D02*
X10115000Y-10415000D01*
X10115000Y-10385000D02*
X10085000Y-10415000D01*
X10085000Y-10485000D02*
X10115000Y-10515000D01*
X10115000Y-10485000D02*
X10085000Y-10515000D01*
X10085000Y-10885000D02*
X10115000Y-10915000D01*
X10115000Y-10885000D02*
X10085000Y-10915000D01*
X10085000Y-10985000D02*
X10115000Y-11015000D01*
X10115000Y-10985000D02*
X10085000Y-11015000D01*
X10085000Y-11085000D02*
X10115000Y-11115000D01*
X10115000Y-11085000D02*
X10085000Y-11115000D01*
X10185000Y-10285000D02*
X10215000Y-10315000D01*
X10215000Y-10285000D02*
X10185000Y-10315000D01*
X10185000Y-10385000D02*
X10215000Y-10415000D01*
X10215000Y-10385000D02*
X10185000Y-10415000D01*
X10185000Y-10485000D02*
X10215000Y-10515000D01*
X10215000Y-10485000D02*
X10185000Y-10515000D01*
X10185000Y-10885000D02*
X10215000Y-10915000D01*
X10215000Y-10885000D02*
X10185000Y-10915000D01*
X10185000Y-10985000D02*
X10215000Y-11015000D01*
X10215000Y-10985000D02*
X10185000Y-11015000D01*
X10185000Y-11085000D02*
X10215000Y-11115000D01*
X10215000Y-11085000D02*
X10185000Y-11115000D01*
X10635000Y-11435000D02*
X10665000Y-11465000D01*
X10665000Y-11435000D02*
X10635000Y-11465000D01*
X10184000Y-10138000D02*
G75*
G02*
X10094000Y-10138000I-45000J0D01*
G01*
X10094000Y-10138000D02*
G75*
G02*
X10184000Y-10138000I45000J0D01*
G01*
X10184000Y-11662000D02*
G75*
G02*
X10094000Y-11662000I-45000J0D01*
G01*
X10094000Y-11662000D02*
G75*
G02*
X10184000Y-11662000I45000J0D01*
G01*
X10946000Y-10138000D02*
G75*
G02*
X10856000Y-10138000I-45000J0D01*
G01*
X10856000Y-10138000D02*
G75*
G02*
X10946000Y-10138000I45000J0D01*
G01*
X10946000Y-11662000D02*
G75*
G02*
X10856000Y-11662000I-45000J0D01*
G01*
X10856000Y-11662000D02*
G75*
G02*
X10946000Y-11662000I45000J0D01*
G01*
D11*
X10258277Y-12113984D02*
X10258277Y-11913984D01*
X10258277Y-11913984D02*
X10305896Y-11913984D01*
X10305896Y-11913984D02*
X10334467Y-11923508D01*
X10334467Y-11923508D02*
X10353515Y-11942555D01*
X10353515Y-11942555D02*
X10363039Y-11961603D01*
X10363039Y-11961603D02*
X10372563Y-11999698D01*
X10372563Y-11999698D02*
X10372563Y-12028269D01*
X10372563Y-12028269D02*
X10363039Y-12066365D01*
X10363039Y-12066365D02*
X10353515Y-12085412D01*
X10353515Y-12085412D02*
X10334467Y-12104460D01*
X10334467Y-12104460D02*
X10305896Y-12113984D01*
X10305896Y-12113984D02*
X10258277Y-12113984D01*
X10458277Y-12113984D02*
X10458277Y-11980650D01*
X10458277Y-12018746D02*
X10467801Y-11999698D01*
X10467801Y-11999698D02*
X10477324Y-11990174D01*
X10477324Y-11990174D02*
X10496372Y-11980650D01*
X10496372Y-11980650D02*
X10515420Y-11980650D01*
X10582086Y-12113984D02*
X10582086Y-11980650D01*
X10582086Y-11913984D02*
X10572563Y-11923508D01*
X10572563Y-11923508D02*
X10582086Y-11933031D01*
X10582086Y-11933031D02*
X10591610Y-11923508D01*
X10591610Y-11923508D02*
X10582086Y-11913984D01*
X10582086Y-11913984D02*
X10582086Y-11933031D01*
X10705896Y-12113984D02*
X10686848Y-12104460D01*
X10686848Y-12104460D02*
X10677324Y-12085412D01*
X10677324Y-12085412D02*
X10677324Y-11913984D01*
X10810658Y-12113984D02*
X10791610Y-12104460D01*
X10791610Y-12104460D02*
X10782086Y-12085412D01*
X10782086Y-12085412D02*
X10782086Y-11913984D01*
X11039229Y-12113984D02*
X11039229Y-11913984D01*
X11039229Y-11913984D02*
X11105896Y-12056841D01*
X11105896Y-12056841D02*
X11172563Y-11913984D01*
X11172563Y-11913984D02*
X11172563Y-12113984D01*
X11353515Y-12113984D02*
X11353515Y-12009222D01*
X11353515Y-12009222D02*
X11343991Y-11990174D01*
X11343991Y-11990174D02*
X11324943Y-11980650D01*
X11324943Y-11980650D02*
X11286848Y-11980650D01*
X11286848Y-11980650D02*
X11267801Y-11990174D01*
X11353515Y-12104460D02*
X11334467Y-12113984D01*
X11334467Y-12113984D02*
X11286848Y-12113984D01*
X11286848Y-12113984D02*
X11267801Y-12104460D01*
X11267801Y-12104460D02*
X11258277Y-12085412D01*
X11258277Y-12085412D02*
X11258277Y-12066365D01*
X11258277Y-12066365D02*
X11267801Y-12047317D01*
X11267801Y-12047317D02*
X11286848Y-12037793D01*
X11286848Y-12037793D02*
X11334467Y-12037793D01*
X11334467Y-12037793D02*
X11353515Y-12028269D01*
X11448753Y-11980650D02*
X11448753Y-12180650D01*
X11448753Y-11990174D02*
X11467801Y-11980650D01*
X11467801Y-11980650D02*
X11505896Y-11980650D01*
X11505896Y-11980650D02*
X11524943Y-11990174D01*
X11524943Y-11990174D02*
X11534467Y-11999698D01*
X11534467Y-11999698D02*
X11543991Y-12018746D01*
X11543991Y-12018746D02*
X11543991Y-12075888D01*
X11543991Y-12075888D02*
X11534467Y-12094936D01*
X11534467Y-12094936D02*
X11524943Y-12104460D01*
X11524943Y-12104460D02*
X11505896Y-12113984D01*
X11505896Y-12113984D02*
X11467801Y-12113984D01*
X11467801Y-12113984D02*
X11448753Y-12104460D01*
X11629705Y-12094936D02*
X11639229Y-12104460D01*
X11639229Y-12104460D02*
X11629705Y-12113984D01*
X11629705Y-12113984D02*
X11620182Y-12104460D01*
X11620182Y-12104460D02*
X11629705Y-12094936D01*
X11629705Y-12094936D02*
X11629705Y-12113984D01*
X11629705Y-11990174D02*
X11639229Y-11999698D01*
X11639229Y-11999698D02*
X11629705Y-12009222D01*
X11629705Y-12009222D02*
X11620182Y-11999698D01*
X11620182Y-11999698D02*
X11629705Y-11990174D01*
X11629705Y-11990174D02*
X11629705Y-12009222D01*
D12*
X9967500Y-12427500D02*
X9997500Y-12457500D01*
X9997500Y-12427500D02*
X9967500Y-12457500D01*
D11*
X10296372Y-12333984D02*
X10315420Y-12333984D01*
X10315420Y-12333984D02*
X10334467Y-12343508D01*
X10334467Y-12343508D02*
X10343991Y-12353031D01*
X10343991Y-12353031D02*
X10353515Y-12372079D01*
X10353515Y-12372079D02*
X10363039Y-12410174D01*
X10363039Y-12410174D02*
X10363039Y-12457793D01*
X10363039Y-12457793D02*
X10353515Y-12495888D01*
X10353515Y-12495888D02*
X10343991Y-12514936D01*
X10343991Y-12514936D02*
X10334467Y-12524460D01*
X10334467Y-12524460D02*
X10315420Y-12533984D01*
X10315420Y-12533984D02*
X10296372Y-12533984D01*
X10296372Y-12533984D02*
X10277324Y-12524460D01*
X10277324Y-12524460D02*
X10267801Y-12514936D01*
X10267801Y-12514936D02*
X10258277Y-12495888D01*
X10258277Y-12495888D02*
X10248753Y-12457793D01*
X10248753Y-12457793D02*
X10248753Y-12410174D01*
X10248753Y-12410174D02*
X10258277Y-12372079D01*
X10258277Y-12372079D02*
X10267801Y-12353031D01*
X10267801Y-12353031D02*
X10277324Y-12343508D01*
X10277324Y-12343508D02*
X10296372Y-12333984D01*
X10448753Y-12514936D02*
X10458277Y-12524460D01*
X10458277Y-12524460D02*
X10448753Y-12533984D01*
X10448753Y-12533984D02*
X10439229Y-12524460D01*
X10439229Y-12524460D02*
X10448753Y-12514936D01*
X10448753Y-12514936D02*
X10448753Y-12533984D01*
X10524944Y-12333984D02*
X10648753Y-12333984D01*
X10648753Y-12333984D02*
X10582086Y-12410174D01*
X10582086Y-12410174D02*
X10610658Y-12410174D01*
X10610658Y-12410174D02*
X10629705Y-12419698D01*
X10629705Y-12419698D02*
X10639229Y-12429222D01*
X10639229Y-12429222D02*
X10648753Y-12448269D01*
X10648753Y-12448269D02*
X10648753Y-12495888D01*
X10648753Y-12495888D02*
X10639229Y-12514936D01*
X10639229Y-12514936D02*
X10629705Y-12524460D01*
X10629705Y-12524460D02*
X10610658Y-12533984D01*
X10610658Y-12533984D02*
X10553515Y-12533984D01*
X10553515Y-12533984D02*
X10534467Y-12524460D01*
X10534467Y-12524460D02*
X10524944Y-12514936D01*
X10772563Y-12333984D02*
X10791610Y-12333984D01*
X10791610Y-12333984D02*
X10810658Y-12343508D01*
X10810658Y-12343508D02*
X10820182Y-12353031D01*
X10820182Y-12353031D02*
X10829705Y-12372079D01*
X10829705Y-12372079D02*
X10839229Y-12410174D01*
X10839229Y-12410174D02*
X10839229Y-12457793D01*
X10839229Y-12457793D02*
X10829705Y-12495888D01*
X10829705Y-12495888D02*
X10820182Y-12514936D01*
X10820182Y-12514936D02*
X10810658Y-12524460D01*
X10810658Y-12524460D02*
X10791610Y-12533984D01*
X10791610Y-12533984D02*
X10772563Y-12533984D01*
X10772563Y-12533984D02*
X10753515Y-12524460D01*
X10753515Y-12524460D02*
X10743991Y-12514936D01*
X10743991Y-12514936D02*
X10734467Y-12495888D01*
X10734467Y-12495888D02*
X10724944Y-12457793D01*
X10724944Y-12457793D02*
X10724944Y-12410174D01*
X10724944Y-12410174D02*
X10734467Y-12372079D01*
X10734467Y-12372079D02*
X10743991Y-12353031D01*
X10743991Y-12353031D02*
X10753515Y-12343508D01*
X10753515Y-12343508D02*
X10772563Y-12333984D01*
X10963039Y-12333984D02*
X10982086Y-12333984D01*
X10982086Y-12333984D02*
X11001134Y-12343508D01*
X11001134Y-12343508D02*
X11010658Y-12353031D01*
X11010658Y-12353031D02*
X11020182Y-12372079D01*
X11020182Y-12372079D02*
X11029705Y-12410174D01*
X11029705Y-12410174D02*
X11029705Y-12457793D01*
X11029705Y-12457793D02*
X11020182Y-12495888D01*
X11020182Y-12495888D02*
X11010658Y-12514936D01*
X11010658Y-12514936D02*
X11001134Y-12524460D01*
X11001134Y-12524460D02*
X10982086Y-12533984D01*
X10982086Y-12533984D02*
X10963039Y-12533984D01*
X10963039Y-12533984D02*
X10943991Y-12524460D01*
X10943991Y-12524460D02*
X10934467Y-12514936D01*
X10934467Y-12514936D02*
X10924944Y-12495888D01*
X10924944Y-12495888D02*
X10915420Y-12457793D01*
X10915420Y-12457793D02*
X10915420Y-12410174D01*
X10915420Y-12410174D02*
X10924944Y-12372079D01*
X10924944Y-12372079D02*
X10934467Y-12353031D01*
X10934467Y-12353031D02*
X10943991Y-12343508D01*
X10943991Y-12343508D02*
X10963039Y-12333984D01*
X11115420Y-12533984D02*
X11115420Y-12400650D01*
X11115420Y-12419698D02*
X11124944Y-12410174D01*
X11124944Y-12410174D02*
X11143991Y-12400650D01*
X11143991Y-12400650D02*
X11172563Y-12400650D01*
X11172563Y-12400650D02*
X11191610Y-12410174D01*
X11191610Y-12410174D02*
X11201134Y-12429222D01*
X11201134Y-12429222D02*
X11201134Y-12533984D01*
X11201134Y-12429222D02*
X11210658Y-12410174D01*
X11210658Y-12410174D02*
X11229705Y-12400650D01*
X11229705Y-12400650D02*
X11258277Y-12400650D01*
X11258277Y-12400650D02*
X11277324Y-12410174D01*
X11277324Y-12410174D02*
X11286848Y-12429222D01*
X11286848Y-12429222D02*
X11286848Y-12533984D01*
X11382086Y-12533984D02*
X11382086Y-12400650D01*
X11382086Y-12419698D02*
X11391610Y-12410174D01*
X11391610Y-12410174D02*
X11410658Y-12400650D01*
X11410658Y-12400650D02*
X11439229Y-12400650D01*
X11439229Y-12400650D02*
X11458277Y-12410174D01*
X11458277Y-12410174D02*
X11467801Y-12429222D01*
X11467801Y-12429222D02*
X11467801Y-12533984D01*
X11467801Y-12429222D02*
X11477324Y-12410174D01*
X11477324Y-12410174D02*
X11496372Y-12400650D01*
X11496372Y-12400650D02*
X11524943Y-12400650D01*
X11524943Y-12400650D02*
X11543991Y-12410174D01*
X11543991Y-12410174D02*
X11553515Y-12429222D01*
X11553515Y-12429222D02*
X11553515Y-12533984D01*
X11943991Y-12324460D02*
X11772563Y-12581603D01*
X12201134Y-12333984D02*
X12220182Y-12333984D01*
X12220182Y-12333984D02*
X12239229Y-12343508D01*
X12239229Y-12343508D02*
X12248753Y-12353031D01*
X12248753Y-12353031D02*
X12258277Y-12372079D01*
X12258277Y-12372079D02*
X12267801Y-12410174D01*
X12267801Y-12410174D02*
X12267801Y-12457793D01*
X12267801Y-12457793D02*
X12258277Y-12495888D01*
X12258277Y-12495888D02*
X12248753Y-12514936D01*
X12248753Y-12514936D02*
X12239229Y-12524460D01*
X12239229Y-12524460D02*
X12220182Y-12533984D01*
X12220182Y-12533984D02*
X12201134Y-12533984D01*
X12201134Y-12533984D02*
X12182086Y-12524460D01*
X12182086Y-12524460D02*
X12172563Y-12514936D01*
X12172563Y-12514936D02*
X12163039Y-12495888D01*
X12163039Y-12495888D02*
X12153515Y-12457793D01*
X12153515Y-12457793D02*
X12153515Y-12410174D01*
X12153515Y-12410174D02*
X12163039Y-12372079D01*
X12163039Y-12372079D02*
X12172563Y-12353031D01*
X12172563Y-12353031D02*
X12182086Y-12343508D01*
X12182086Y-12343508D02*
X12201134Y-12333984D01*
X12353515Y-12514936D02*
X12363039Y-12524460D01*
X12363039Y-12524460D02*
X12353515Y-12533984D01*
X12353515Y-12533984D02*
X12343991Y-12524460D01*
X12343991Y-12524460D02*
X12353515Y-12514936D01*
X12353515Y-12514936D02*
X12353515Y-12533984D01*
X12486848Y-12333984D02*
X12505896Y-12333984D01*
X12505896Y-12333984D02*
X12524944Y-12343508D01*
X12524944Y-12343508D02*
X12534467Y-12353031D01*
X12534467Y-12353031D02*
X12543991Y-12372079D01*
X12543991Y-12372079D02*
X12553515Y-12410174D01*
X12553515Y-12410174D02*
X12553515Y-12457793D01*
X12553515Y-12457793D02*
X12543991Y-12495888D01*
X12543991Y-12495888D02*
X12534467Y-12514936D01*
X12534467Y-12514936D02*
X12524944Y-12524460D01*
X12524944Y-12524460D02*
X12505896Y-12533984D01*
X12505896Y-12533984D02*
X12486848Y-12533984D01*
X12486848Y-12533984D02*
X12467801Y-12524460D01*
X12467801Y-12524460D02*
X12458277Y-12514936D01*
X12458277Y-12514936D02*
X12448753Y-12495888D01*
X12448753Y-12495888D02*
X12439229Y-12457793D01*
X12439229Y-12457793D02*
X12439229Y-12410174D01*
X12439229Y-12410174D02*
X12448753Y-12372079D01*
X12448753Y-12372079D02*
X12458277Y-12353031D01*
X12458277Y-12353031D02*
X12467801Y-12343508D01*
X12467801Y-12343508D02*
X12486848Y-12333984D01*
X12743991Y-12533984D02*
X12629706Y-12533984D01*
X12686848Y-12533984D02*
X12686848Y-12333984D01*
X12686848Y-12333984D02*
X12667801Y-12362555D01*
X12667801Y-12362555D02*
X12648753Y-12381603D01*
X12648753Y-12381603D02*
X12629706Y-12391127D01*
X12934467Y-12533984D02*
X12820182Y-12533984D01*
X12877325Y-12533984D02*
X12877325Y-12333984D01*
X12877325Y-12333984D02*
X12858277Y-12362555D01*
X12858277Y-12362555D02*
X12839229Y-12381603D01*
X12839229Y-12381603D02*
X12820182Y-12391127D01*
X13048753Y-12419698D02*
X13029706Y-12410174D01*
X13029706Y-12410174D02*
X13020182Y-12400650D01*
X13020182Y-12400650D02*
X13010658Y-12381603D01*
X13010658Y-12381603D02*
X13010658Y-12372079D01*
X13010658Y-12372079D02*
X13020182Y-12353031D01*
X13020182Y-12353031D02*
X13029706Y-12343508D01*
X13029706Y-12343508D02*
X13048753Y-12333984D01*
X13048753Y-12333984D02*
X13086848Y-12333984D01*
X13086848Y-12333984D02*
X13105896Y-12343508D01*
X13105896Y-12343508D02*
X13115420Y-12353031D01*
X13115420Y-12353031D02*
X13124944Y-12372079D01*
X13124944Y-12372079D02*
X13124944Y-12381603D01*
X13124944Y-12381603D02*
X13115420Y-12400650D01*
X13115420Y-12400650D02*
X13105896Y-12410174D01*
X13105896Y-12410174D02*
X13086848Y-12419698D01*
X13086848Y-12419698D02*
X13048753Y-12419698D01*
X13048753Y-12419698D02*
X13029706Y-12429222D01*
X13029706Y-12429222D02*
X13020182Y-12438746D01*
X13020182Y-12438746D02*
X13010658Y-12457793D01*
X13010658Y-12457793D02*
X13010658Y-12495888D01*
X13010658Y-12495888D02*
X13020182Y-12514936D01*
X13020182Y-12514936D02*
X13029706Y-12524460D01*
X13029706Y-12524460D02*
X13048753Y-12533984D01*
X13048753Y-12533984D02*
X13086848Y-12533984D01*
X13086848Y-12533984D02*
X13105896Y-12524460D01*
X13105896Y-12524460D02*
X13115420Y-12514936D01*
X13115420Y-12514936D02*
X13124944Y-12495888D01*
X13124944Y-12495888D02*
X13124944Y-12457793D01*
X13124944Y-12457793D02*
X13115420Y-12438746D01*
X13115420Y-12438746D02*
X13105896Y-12429222D01*
X13105896Y-12429222D02*
X13086848Y-12419698D01*
X13201134Y-12333984D02*
X13201134Y-12372079D01*
X13277325Y-12333984D02*
X13277325Y-12372079D01*
X13572563Y-12610174D02*
X13563039Y-12600650D01*
X13563039Y-12600650D02*
X13543991Y-12572079D01*
X13543991Y-12572079D02*
X13534468Y-12553031D01*
X13534468Y-12553031D02*
X13524944Y-12524460D01*
X13524944Y-12524460D02*
X13515420Y-12476841D01*
X13515420Y-12476841D02*
X13515420Y-12438746D01*
X13515420Y-12438746D02*
X13524944Y-12391127D01*
X13524944Y-12391127D02*
X13534468Y-12362555D01*
X13534468Y-12362555D02*
X13543991Y-12343508D01*
X13543991Y-12343508D02*
X13563039Y-12314936D01*
X13563039Y-12314936D02*
X13572563Y-12305412D01*
X13753515Y-12533984D02*
X13639229Y-12533984D01*
X13696372Y-12533984D02*
X13696372Y-12333984D01*
X13696372Y-12333984D02*
X13677325Y-12362555D01*
X13677325Y-12362555D02*
X13658277Y-12381603D01*
X13658277Y-12381603D02*
X13639229Y-12391127D01*
X13820182Y-12333984D02*
X13943991Y-12333984D01*
X13943991Y-12333984D02*
X13877325Y-12410174D01*
X13877325Y-12410174D02*
X13905896Y-12410174D01*
X13905896Y-12410174D02*
X13924944Y-12419698D01*
X13924944Y-12419698D02*
X13934468Y-12429222D01*
X13934468Y-12429222D02*
X13943991Y-12448269D01*
X13943991Y-12448269D02*
X13943991Y-12495888D01*
X13943991Y-12495888D02*
X13934468Y-12514936D01*
X13934468Y-12514936D02*
X13924944Y-12524460D01*
X13924944Y-12524460D02*
X13905896Y-12533984D01*
X13905896Y-12533984D02*
X13848753Y-12533984D01*
X13848753Y-12533984D02*
X13829706Y-12524460D01*
X13829706Y-12524460D02*
X13820182Y-12514936D01*
X14182087Y-12533984D02*
X14182087Y-12333984D01*
X14267801Y-12533984D02*
X14267801Y-12429222D01*
X14267801Y-12429222D02*
X14258277Y-12410174D01*
X14258277Y-12410174D02*
X14239230Y-12400650D01*
X14239230Y-12400650D02*
X14210658Y-12400650D01*
X14210658Y-12400650D02*
X14191610Y-12410174D01*
X14191610Y-12410174D02*
X14182087Y-12419698D01*
X14391610Y-12533984D02*
X14372563Y-12524460D01*
X14372563Y-12524460D02*
X14363039Y-12514936D01*
X14363039Y-12514936D02*
X14353515Y-12495888D01*
X14353515Y-12495888D02*
X14353515Y-12438746D01*
X14353515Y-12438746D02*
X14363039Y-12419698D01*
X14363039Y-12419698D02*
X14372563Y-12410174D01*
X14372563Y-12410174D02*
X14391610Y-12400650D01*
X14391610Y-12400650D02*
X14420182Y-12400650D01*
X14420182Y-12400650D02*
X14439230Y-12410174D01*
X14439230Y-12410174D02*
X14448753Y-12419698D01*
X14448753Y-12419698D02*
X14458277Y-12438746D01*
X14458277Y-12438746D02*
X14458277Y-12495888D01*
X14458277Y-12495888D02*
X14448753Y-12514936D01*
X14448753Y-12514936D02*
X14439230Y-12524460D01*
X14439230Y-12524460D02*
X14420182Y-12533984D01*
X14420182Y-12533984D02*
X14391610Y-12533984D01*
X14572563Y-12533984D02*
X14553515Y-12524460D01*
X14553515Y-12524460D02*
X14543991Y-12505412D01*
X14543991Y-12505412D02*
X14543991Y-12333984D01*
X14724944Y-12524460D02*
X14705896Y-12533984D01*
X14705896Y-12533984D02*
X14667801Y-12533984D01*
X14667801Y-12533984D02*
X14648753Y-12524460D01*
X14648753Y-12524460D02*
X14639230Y-12505412D01*
X14639230Y-12505412D02*
X14639230Y-12429222D01*
X14639230Y-12429222D02*
X14648753Y-12410174D01*
X14648753Y-12410174D02*
X14667801Y-12400650D01*
X14667801Y-12400650D02*
X14705896Y-12400650D01*
X14705896Y-12400650D02*
X14724944Y-12410174D01*
X14724944Y-12410174D02*
X14734468Y-12429222D01*
X14734468Y-12429222D02*
X14734468Y-12448269D01*
X14734468Y-12448269D02*
X14639230Y-12467317D01*
X14810658Y-12524460D02*
X14829706Y-12533984D01*
X14829706Y-12533984D02*
X14867801Y-12533984D01*
X14867801Y-12533984D02*
X14886849Y-12524460D01*
X14886849Y-12524460D02*
X14896372Y-12505412D01*
X14896372Y-12505412D02*
X14896372Y-12495888D01*
X14896372Y-12495888D02*
X14886849Y-12476841D01*
X14886849Y-12476841D02*
X14867801Y-12467317D01*
X14867801Y-12467317D02*
X14839230Y-12467317D01*
X14839230Y-12467317D02*
X14820182Y-12457793D01*
X14820182Y-12457793D02*
X14810658Y-12438746D01*
X14810658Y-12438746D02*
X14810658Y-12429222D01*
X14810658Y-12429222D02*
X14820182Y-12410174D01*
X14820182Y-12410174D02*
X14839230Y-12400650D01*
X14839230Y-12400650D02*
X14867801Y-12400650D01*
X14867801Y-12400650D02*
X14886849Y-12410174D01*
X14963039Y-12610174D02*
X14972563Y-12600650D01*
X14972563Y-12600650D02*
X14991611Y-12572079D01*
X14991611Y-12572079D02*
X15001134Y-12553031D01*
X15001134Y-12553031D02*
X15010658Y-12524460D01*
X15010658Y-12524460D02*
X15020182Y-12476841D01*
X15020182Y-12476841D02*
X15020182Y-12438746D01*
X15020182Y-12438746D02*
X15010658Y-12391127D01*
X15010658Y-12391127D02*
X15001134Y-12362555D01*
X15001134Y-12362555D02*
X14991611Y-12343508D01*
X14991611Y-12343508D02*
X14972563Y-12314936D01*
X14972563Y-12314936D02*
X14963039Y-12305412D01*
D12*
X9997500Y-12706500D02*
G75*
G02*
X9907500Y-12706500I-45000J0D01*
G01*
X9907500Y-12706500D02*
G75*
G02*
X9997500Y-12706500I45000J0D01*
G01*
D11*
X10296372Y-12597984D02*
X10315420Y-12597984D01*
X10315420Y-12597984D02*
X10334467Y-12607508D01*
X10334467Y-12607508D02*
X10343991Y-12617031D01*
X10343991Y-12617031D02*
X10353515Y-12636079D01*
X10353515Y-12636079D02*
X10363039Y-12674174D01*
X10363039Y-12674174D02*
X10363039Y-12721793D01*
X10363039Y-12721793D02*
X10353515Y-12759888D01*
X10353515Y-12759888D02*
X10343991Y-12778936D01*
X10343991Y-12778936D02*
X10334467Y-12788460D01*
X10334467Y-12788460D02*
X10315420Y-12797984D01*
X10315420Y-12797984D02*
X10296372Y-12797984D01*
X10296372Y-12797984D02*
X10277324Y-12788460D01*
X10277324Y-12788460D02*
X10267801Y-12778936D01*
X10267801Y-12778936D02*
X10258277Y-12759888D01*
X10258277Y-12759888D02*
X10248753Y-12721793D01*
X10248753Y-12721793D02*
X10248753Y-12674174D01*
X10248753Y-12674174D02*
X10258277Y-12636079D01*
X10258277Y-12636079D02*
X10267801Y-12617031D01*
X10267801Y-12617031D02*
X10277324Y-12607508D01*
X10277324Y-12607508D02*
X10296372Y-12597984D01*
X10448753Y-12778936D02*
X10458277Y-12788460D01*
X10458277Y-12788460D02*
X10448753Y-12797984D01*
X10448753Y-12797984D02*
X10439229Y-12788460D01*
X10439229Y-12788460D02*
X10448753Y-12778936D01*
X10448753Y-12778936D02*
X10448753Y-12797984D01*
X10553515Y-12797984D02*
X10591610Y-12797984D01*
X10591610Y-12797984D02*
X10610658Y-12788460D01*
X10610658Y-12788460D02*
X10620182Y-12778936D01*
X10620182Y-12778936D02*
X10639229Y-12750365D01*
X10639229Y-12750365D02*
X10648753Y-12712269D01*
X10648753Y-12712269D02*
X10648753Y-12636079D01*
X10648753Y-12636079D02*
X10639229Y-12617031D01*
X10639229Y-12617031D02*
X10629705Y-12607508D01*
X10629705Y-12607508D02*
X10610658Y-12597984D01*
X10610658Y-12597984D02*
X10572563Y-12597984D01*
X10572563Y-12597984D02*
X10553515Y-12607508D01*
X10553515Y-12607508D02*
X10543991Y-12617031D01*
X10543991Y-12617031D02*
X10534467Y-12636079D01*
X10534467Y-12636079D02*
X10534467Y-12683698D01*
X10534467Y-12683698D02*
X10543991Y-12702746D01*
X10543991Y-12702746D02*
X10553515Y-12712269D01*
X10553515Y-12712269D02*
X10572563Y-12721793D01*
X10572563Y-12721793D02*
X10610658Y-12721793D01*
X10610658Y-12721793D02*
X10629705Y-12712269D01*
X10629705Y-12712269D02*
X10639229Y-12702746D01*
X10639229Y-12702746D02*
X10648753Y-12683698D01*
X10772563Y-12597984D02*
X10791610Y-12597984D01*
X10791610Y-12597984D02*
X10810658Y-12607508D01*
X10810658Y-12607508D02*
X10820182Y-12617031D01*
X10820182Y-12617031D02*
X10829705Y-12636079D01*
X10829705Y-12636079D02*
X10839229Y-12674174D01*
X10839229Y-12674174D02*
X10839229Y-12721793D01*
X10839229Y-12721793D02*
X10829705Y-12759888D01*
X10829705Y-12759888D02*
X10820182Y-12778936D01*
X10820182Y-12778936D02*
X10810658Y-12788460D01*
X10810658Y-12788460D02*
X10791610Y-12797984D01*
X10791610Y-12797984D02*
X10772563Y-12797984D01*
X10772563Y-12797984D02*
X10753515Y-12788460D01*
X10753515Y-12788460D02*
X10743991Y-12778936D01*
X10743991Y-12778936D02*
X10734467Y-12759888D01*
X10734467Y-12759888D02*
X10724944Y-12721793D01*
X10724944Y-12721793D02*
X10724944Y-12674174D01*
X10724944Y-12674174D02*
X10734467Y-12636079D01*
X10734467Y-12636079D02*
X10743991Y-12617031D01*
X10743991Y-12617031D02*
X10753515Y-12607508D01*
X10753515Y-12607508D02*
X10772563Y-12597984D01*
X10963039Y-12597984D02*
X10982086Y-12597984D01*
X10982086Y-12597984D02*
X11001134Y-12607508D01*
X11001134Y-12607508D02*
X11010658Y-12617031D01*
X11010658Y-12617031D02*
X11020182Y-12636079D01*
X11020182Y-12636079D02*
X11029705Y-12674174D01*
X11029705Y-12674174D02*
X11029705Y-12721793D01*
X11029705Y-12721793D02*
X11020182Y-12759888D01*
X11020182Y-12759888D02*
X11010658Y-12778936D01*
X11010658Y-12778936D02*
X11001134Y-12788460D01*
X11001134Y-12788460D02*
X10982086Y-12797984D01*
X10982086Y-12797984D02*
X10963039Y-12797984D01*
X10963039Y-12797984D02*
X10943991Y-12788460D01*
X10943991Y-12788460D02*
X10934467Y-12778936D01*
X10934467Y-12778936D02*
X10924944Y-12759888D01*
X10924944Y-12759888D02*
X10915420Y-12721793D01*
X10915420Y-12721793D02*
X10915420Y-12674174D01*
X10915420Y-12674174D02*
X10924944Y-12636079D01*
X10924944Y-12636079D02*
X10934467Y-12617031D01*
X10934467Y-12617031D02*
X10943991Y-12607508D01*
X10943991Y-12607508D02*
X10963039Y-12597984D01*
X11115420Y-12797984D02*
X11115420Y-12664650D01*
X11115420Y-12683698D02*
X11124944Y-12674174D01*
X11124944Y-12674174D02*
X11143991Y-12664650D01*
X11143991Y-12664650D02*
X11172563Y-12664650D01*
X11172563Y-12664650D02*
X11191610Y-12674174D01*
X11191610Y-12674174D02*
X11201134Y-12693222D01*
X11201134Y-12693222D02*
X11201134Y-12797984D01*
X11201134Y-12693222D02*
X11210658Y-12674174D01*
X11210658Y-12674174D02*
X11229705Y-12664650D01*
X11229705Y-12664650D02*
X11258277Y-12664650D01*
X11258277Y-12664650D02*
X11277324Y-12674174D01*
X11277324Y-12674174D02*
X11286848Y-12693222D01*
X11286848Y-12693222D02*
X11286848Y-12797984D01*
X11382086Y-12797984D02*
X11382086Y-12664650D01*
X11382086Y-12683698D02*
X11391610Y-12674174D01*
X11391610Y-12674174D02*
X11410658Y-12664650D01*
X11410658Y-12664650D02*
X11439229Y-12664650D01*
X11439229Y-12664650D02*
X11458277Y-12674174D01*
X11458277Y-12674174D02*
X11467801Y-12693222D01*
X11467801Y-12693222D02*
X11467801Y-12797984D01*
X11467801Y-12693222D02*
X11477324Y-12674174D01*
X11477324Y-12674174D02*
X11496372Y-12664650D01*
X11496372Y-12664650D02*
X11524943Y-12664650D01*
X11524943Y-12664650D02*
X11543991Y-12674174D01*
X11543991Y-12674174D02*
X11553515Y-12693222D01*
X11553515Y-12693222D02*
X11553515Y-12797984D01*
X11943991Y-12588460D02*
X11772563Y-12845603D01*
X12201134Y-12597984D02*
X12220182Y-12597984D01*
X12220182Y-12597984D02*
X12239229Y-12607508D01*
X12239229Y-12607508D02*
X12248753Y-12617031D01*
X12248753Y-12617031D02*
X12258277Y-12636079D01*
X12258277Y-12636079D02*
X12267801Y-12674174D01*
X12267801Y-12674174D02*
X12267801Y-12721793D01*
X12267801Y-12721793D02*
X12258277Y-12759888D01*
X12258277Y-12759888D02*
X12248753Y-12778936D01*
X12248753Y-12778936D02*
X12239229Y-12788460D01*
X12239229Y-12788460D02*
X12220182Y-12797984D01*
X12220182Y-12797984D02*
X12201134Y-12797984D01*
X12201134Y-12797984D02*
X12182086Y-12788460D01*
X12182086Y-12788460D02*
X12172563Y-12778936D01*
X12172563Y-12778936D02*
X12163039Y-12759888D01*
X12163039Y-12759888D02*
X12153515Y-12721793D01*
X12153515Y-12721793D02*
X12153515Y-12674174D01*
X12153515Y-12674174D02*
X12163039Y-12636079D01*
X12163039Y-12636079D02*
X12172563Y-12617031D01*
X12172563Y-12617031D02*
X12182086Y-12607508D01*
X12182086Y-12607508D02*
X12201134Y-12597984D01*
X12353515Y-12778936D02*
X12363039Y-12788460D01*
X12363039Y-12788460D02*
X12353515Y-12797984D01*
X12353515Y-12797984D02*
X12343991Y-12788460D01*
X12343991Y-12788460D02*
X12353515Y-12778936D01*
X12353515Y-12778936D02*
X12353515Y-12797984D01*
X12486848Y-12597984D02*
X12505896Y-12597984D01*
X12505896Y-12597984D02*
X12524944Y-12607508D01*
X12524944Y-12607508D02*
X12534467Y-12617031D01*
X12534467Y-12617031D02*
X12543991Y-12636079D01*
X12543991Y-12636079D02*
X12553515Y-12674174D01*
X12553515Y-12674174D02*
X12553515Y-12721793D01*
X12553515Y-12721793D02*
X12543991Y-12759888D01*
X12543991Y-12759888D02*
X12534467Y-12778936D01*
X12534467Y-12778936D02*
X12524944Y-12788460D01*
X12524944Y-12788460D02*
X12505896Y-12797984D01*
X12505896Y-12797984D02*
X12486848Y-12797984D01*
X12486848Y-12797984D02*
X12467801Y-12788460D01*
X12467801Y-12788460D02*
X12458277Y-12778936D01*
X12458277Y-12778936D02*
X12448753Y-12759888D01*
X12448753Y-12759888D02*
X12439229Y-12721793D01*
X12439229Y-12721793D02*
X12439229Y-12674174D01*
X12439229Y-12674174D02*
X12448753Y-12636079D01*
X12448753Y-12636079D02*
X12458277Y-12617031D01*
X12458277Y-12617031D02*
X12467801Y-12607508D01*
X12467801Y-12607508D02*
X12486848Y-12597984D01*
X12620182Y-12597984D02*
X12743991Y-12597984D01*
X12743991Y-12597984D02*
X12677325Y-12674174D01*
X12677325Y-12674174D02*
X12705896Y-12674174D01*
X12705896Y-12674174D02*
X12724944Y-12683698D01*
X12724944Y-12683698D02*
X12734467Y-12693222D01*
X12734467Y-12693222D02*
X12743991Y-12712269D01*
X12743991Y-12712269D02*
X12743991Y-12759888D01*
X12743991Y-12759888D02*
X12734467Y-12778936D01*
X12734467Y-12778936D02*
X12724944Y-12788460D01*
X12724944Y-12788460D02*
X12705896Y-12797984D01*
X12705896Y-12797984D02*
X12648753Y-12797984D01*
X12648753Y-12797984D02*
X12629706Y-12788460D01*
X12629706Y-12788460D02*
X12620182Y-12778936D01*
X12924944Y-12597984D02*
X12829706Y-12597984D01*
X12829706Y-12597984D02*
X12820182Y-12693222D01*
X12820182Y-12693222D02*
X12829706Y-12683698D01*
X12829706Y-12683698D02*
X12848753Y-12674174D01*
X12848753Y-12674174D02*
X12896372Y-12674174D01*
X12896372Y-12674174D02*
X12915420Y-12683698D01*
X12915420Y-12683698D02*
X12924944Y-12693222D01*
X12924944Y-12693222D02*
X12934467Y-12712269D01*
X12934467Y-12712269D02*
X12934467Y-12759888D01*
X12934467Y-12759888D02*
X12924944Y-12778936D01*
X12924944Y-12778936D02*
X12915420Y-12788460D01*
X12915420Y-12788460D02*
X12896372Y-12797984D01*
X12896372Y-12797984D02*
X12848753Y-12797984D01*
X12848753Y-12797984D02*
X12829706Y-12788460D01*
X12829706Y-12788460D02*
X12820182Y-12778936D01*
X13105896Y-12664650D02*
X13105896Y-12797984D01*
X13058277Y-12588460D02*
X13010658Y-12731317D01*
X13010658Y-12731317D02*
X13134467Y-12731317D01*
X13201134Y-12597984D02*
X13201134Y-12636079D01*
X13277325Y-12597984D02*
X13277325Y-12636079D01*
X13572563Y-12874174D02*
X13563039Y-12864650D01*
X13563039Y-12864650D02*
X13543991Y-12836079D01*
X13543991Y-12836079D02*
X13534468Y-12817031D01*
X13534468Y-12817031D02*
X13524944Y-12788460D01*
X13524944Y-12788460D02*
X13515420Y-12740841D01*
X13515420Y-12740841D02*
X13515420Y-12702746D01*
X13515420Y-12702746D02*
X13524944Y-12655127D01*
X13524944Y-12655127D02*
X13534468Y-12626555D01*
X13534468Y-12626555D02*
X13543991Y-12607508D01*
X13543991Y-12607508D02*
X13563039Y-12578936D01*
X13563039Y-12578936D02*
X13572563Y-12569412D01*
X13734468Y-12664650D02*
X13734468Y-12797984D01*
X13686848Y-12588460D02*
X13639229Y-12731317D01*
X13639229Y-12731317D02*
X13763039Y-12731317D01*
X13991610Y-12797984D02*
X13991610Y-12597984D01*
X14077325Y-12797984D02*
X14077325Y-12693222D01*
X14077325Y-12693222D02*
X14067801Y-12674174D01*
X14067801Y-12674174D02*
X14048753Y-12664650D01*
X14048753Y-12664650D02*
X14020182Y-12664650D01*
X14020182Y-12664650D02*
X14001134Y-12674174D01*
X14001134Y-12674174D02*
X13991610Y-12683698D01*
X14201134Y-12797984D02*
X14182087Y-12788460D01*
X14182087Y-12788460D02*
X14172563Y-12778936D01*
X14172563Y-12778936D02*
X14163039Y-12759888D01*
X14163039Y-12759888D02*
X14163039Y-12702746D01*
X14163039Y-12702746D02*
X14172563Y-12683698D01*
X14172563Y-12683698D02*
X14182087Y-12674174D01*
X14182087Y-12674174D02*
X14201134Y-12664650D01*
X14201134Y-12664650D02*
X14229706Y-12664650D01*
X14229706Y-12664650D02*
X14248753Y-12674174D01*
X14248753Y-12674174D02*
X14258277Y-12683698D01*
X14258277Y-12683698D02*
X14267801Y-12702746D01*
X14267801Y-12702746D02*
X14267801Y-12759888D01*
X14267801Y-12759888D02*
X14258277Y-12778936D01*
X14258277Y-12778936D02*
X14248753Y-12788460D01*
X14248753Y-12788460D02*
X14229706Y-12797984D01*
X14229706Y-12797984D02*
X14201134Y-12797984D01*
X14382087Y-12797984D02*
X14363039Y-12788460D01*
X14363039Y-12788460D02*
X14353515Y-12769412D01*
X14353515Y-12769412D02*
X14353515Y-12597984D01*
X14534468Y-12788460D02*
X14515420Y-12797984D01*
X14515420Y-12797984D02*
X14477325Y-12797984D01*
X14477325Y-12797984D02*
X14458277Y-12788460D01*
X14458277Y-12788460D02*
X14448753Y-12769412D01*
X14448753Y-12769412D02*
X14448753Y-12693222D01*
X14448753Y-12693222D02*
X14458277Y-12674174D01*
X14458277Y-12674174D02*
X14477325Y-12664650D01*
X14477325Y-12664650D02*
X14515420Y-12664650D01*
X14515420Y-12664650D02*
X14534468Y-12674174D01*
X14534468Y-12674174D02*
X14543991Y-12693222D01*
X14543991Y-12693222D02*
X14543991Y-12712269D01*
X14543991Y-12712269D02*
X14448753Y-12731317D01*
X14620182Y-12788460D02*
X14639230Y-12797984D01*
X14639230Y-12797984D02*
X14677325Y-12797984D01*
X14677325Y-12797984D02*
X14696372Y-12788460D01*
X14696372Y-12788460D02*
X14705896Y-12769412D01*
X14705896Y-12769412D02*
X14705896Y-12759888D01*
X14705896Y-12759888D02*
X14696372Y-12740841D01*
X14696372Y-12740841D02*
X14677325Y-12731317D01*
X14677325Y-12731317D02*
X14648753Y-12731317D01*
X14648753Y-12731317D02*
X14629706Y-12721793D01*
X14629706Y-12721793D02*
X14620182Y-12702746D01*
X14620182Y-12702746D02*
X14620182Y-12693222D01*
X14620182Y-12693222D02*
X14629706Y-12674174D01*
X14629706Y-12674174D02*
X14648753Y-12664650D01*
X14648753Y-12664650D02*
X14677325Y-12664650D01*
X14677325Y-12664650D02*
X14696372Y-12674174D01*
X14772563Y-12874174D02*
X14782087Y-12864650D01*
X14782087Y-12864650D02*
X14801134Y-12836079D01*
X14801134Y-12836079D02*
X14810658Y-12817031D01*
X14810658Y-12817031D02*
X14820182Y-12788460D01*
X14820182Y-12788460D02*
X14829706Y-12740841D01*
X14829706Y-12740841D02*
X14829706Y-12702746D01*
X14829706Y-12702746D02*
X14820182Y-12655127D01*
X14820182Y-12655127D02*
X14810658Y-12626555D01*
X14810658Y-12626555D02*
X14801134Y-12607508D01*
X14801134Y-12607508D02*
X14782087Y-12578936D01*
X14782087Y-12578936D02*
X14772563Y-12569412D01*
M02*
